<svg xmlns="http://www.w3.org/2000/svg" width="607" height="350" viewBox="0 0 607 350" version="1.1">
	<path d="M 308.459 12.067 C 308.096 12.653, 308.014 13.348, 308.276 13.610 C 308.538 13.872, 309.019 13.392, 309.345 12.543 C 310.021 10.781, 309.445 10.471, 308.459 12.067 M 257.405 14.250 L 255.500 16.500 257.750 14.595 C 258.988 13.547, 260 12.535, 260 12.345 C 260 11.545, 259.195 12.136, 257.405 14.250 M 522.405 14.250 L 520.500 16.500 522.750 14.595 C 523.987 13.547, 525 12.535, 525 12.345 C 525 11.545, 524.195 12.136, 522.405 14.250 M 402.924 18.750 L 400.500 21.500 403.250 19.076 C 404.762 17.742, 406 16.505, 406 16.326 C 406 15.541, 405.190 16.180, 402.924 18.750 M 517.405 19.250 L 515.500 21.500 517.750 19.595 C 518.987 18.547, 520 17.535, 520 17.345 C 520 16.545, 519.195 17.136, 517.405 19.250 M 563.079 22.583 C 563.127 23.748, 563.364 23.985, 563.683 23.188 C 563.972 22.466, 563.936 21.603, 563.604 21.271 C 563.272 20.939, 563.036 21.529, 563.079 22.583 M 411.405 30.250 L 409.500 32.500 411.750 30.595 C 412.988 29.547, 414 28.535, 414 28.345 C 414 27.545, 413.195 28.136, 411.405 30.250 M 272.872 30.750 C 271.629 32.336, 271.664 32.371, 273.250 31.128 C 274.916 29.821, 275.445 29, 274.622 29 C 274.415 29, 273.627 29.788, 272.872 30.750 M 523.872 37.750 C 522.629 39.336, 522.664 39.371, 524.250 38.128 C 525.212 37.373, 526 36.585, 526 36.378 C 526 35.555, 525.179 36.084, 523.872 37.750 M 388.872 43.750 C 387.629 45.336, 387.664 45.371, 389.250 44.128 C 390.916 42.821, 391.445 42, 390.622 42 C 390.415 42, 389.627 42.788, 388.872 43.750 M 240 45 C 239.099 45.582, 238.975 45.975, 239.691 45.985 C 240.346 45.993, 241.160 45.550, 241.500 45 C 242.267 43.758, 241.921 43.758, 240 45 M 394.872 48.750 C 393.629 50.336, 393.664 50.371, 395.250 49.128 C 396.916 47.821, 397.445 47, 396.622 47 C 396.415 47, 395.627 47.788, 394.872 48.750 M 467.462 52.250 L 462.500 57.500 467.750 52.538 C 470.637 49.808, 473 47.446, 473 47.288 C 473 46.541, 472.074 47.372, 467.462 52.250 M 378.462 53.250 L 373.500 58.500 378.750 53.538 C 383.628 48.926, 384.459 48, 383.712 48 C 383.554 48, 381.192 50.362, 378.462 53.250 M 531.405 52.250 L 529.500 54.500 531.750 52.595 C 533.864 50.805, 534.455 50, 533.655 50 C 533.465 50, 532.453 51.013, 531.405 52.250 M 75.500 53 C 76.495 54.100, 77.535 55, 77.810 55 C 78.085 55, 77.495 54.100, 76.500 53 C 75.505 51.900, 74.465 51, 74.190 51 C 73.915 51, 74.505 51.900, 75.500 53 M 402.872 58.750 C 401.629 60.336, 401.664 60.371, 403.250 59.128 C 404.916 57.821, 405.445 57, 404.622 57 C 404.415 57, 403.627 57.788, 402.872 58.750 M 379.437 61.250 L 376.500 64.500 379.750 61.563 C 381.538 59.948, 383 58.485, 383 58.313 C 383 57.540, 382.175 58.221, 379.437 61.250 M 484.872 60.750 C 483.629 62.336, 483.664 62.371, 485.250 61.128 C 486.916 59.821, 487.445 59, 486.622 59 C 486.415 59, 485.627 59.788, 484.872 60.750 M 58 60.378 C 58 60.585, 58.788 61.373, 59.750 62.128 C 61.336 63.371, 61.371 63.336, 60.128 61.750 C 58.821 60.084, 58 59.555, 58 60.378 M 291.437 68.250 L 288.500 71.500 291.750 68.563 C 294.779 65.825, 295.460 65, 294.687 65 C 294.515 65, 293.052 66.463, 291.437 68.250 M 476.872 67.750 C 475.629 69.336, 475.664 69.371, 477.250 68.128 C 478.916 66.821, 479.445 66, 478.622 66 C 478.415 66, 477.627 66.787, 476.872 67.750 M 402.872 69.750 C 401.629 71.336, 401.664 71.371, 403.250 70.128 C 404.916 68.821, 405.445 68, 404.622 68 C 404.415 68, 403.627 68.787, 402.872 69.750 M 285.872 73.750 C 284.629 75.336, 284.664 75.371, 286.250 74.128 C 287.916 72.821, 288.445 72, 287.622 72 C 287.415 72, 286.627 72.787, 285.872 73.750 M 131.405 76.250 L 129.500 78.500 131.750 76.595 C 133.864 74.805, 134.455 74, 133.655 74 C 133.465 74, 132.453 75.013, 131.405 76.250 M 279.872 78.750 C 278.629 80.336, 278.664 80.371, 280.250 79.128 C 281.916 77.821, 282.445 77, 281.622 77 C 281.415 77, 280.627 77.787, 279.872 78.750 M 403 89.393 C 403 89.609, 403.698 90.054, 404.552 90.382 C 405.442 90.723, 405.843 90.555, 405.493 89.989 C 404.906 89.038, 403 88.583, 403 89.393 M 119.872 99.750 C 118.629 101.336, 118.664 101.371, 120.250 100.128 C 121.916 98.821, 122.445 98, 121.622 98 C 121.415 98, 120.627 98.787, 119.872 99.750 M 531.872 101.750 C 530.629 103.336, 530.664 103.371, 532.250 102.128 C 533.212 101.373, 534 100.585, 534 100.378 C 534 99.555, 533.179 100.084, 531.872 101.750 M 160.813 105.683 C 161.534 105.972, 162.397 105.936, 162.729 105.604 C 163.061 105.272, 162.471 105.036, 161.417 105.079 C 160.252 105.127, 160.015 105.364, 160.813 105.683 M 531.437 115.250 L 528.500 118.500 531.750 115.563 C 533.538 113.948, 535 112.485, 535 112.313 C 535 111.540, 534.175 112.221, 531.437 115.250 M 128.872 117.750 C 127.629 119.336, 127.664 119.371, 129.250 118.128 C 130.916 116.821, 131.445 116, 130.622 116 C 130.415 116, 129.627 116.787, 128.872 117.750 M 518.872 118.750 C 517.629 120.336, 517.664 120.371, 519.250 119.128 C 520.212 118.373, 521 117.585, 521 117.378 C 521 116.555, 520.179 117.084, 518.872 118.750 M 111.405 126.250 L 109.500 128.500 111.750 126.595 C 112.987 125.547, 114 124.535, 114 124.345 C 114 123.545, 113.195 124.136, 111.405 126.250 M 528.437 127.250 L 525.500 130.500 528.750 127.563 C 530.538 125.948, 532 124.485, 532 124.313 C 532 123.540, 531.175 124.221, 528.437 127.250 M 537.872 126.750 C 536.629 128.336, 536.664 128.371, 538.250 127.128 C 539.916 125.821, 540.445 125, 539.622 125 C 539.415 125, 538.627 125.787, 537.872 126.750 M 133.872 136.750 C 132.629 138.336, 132.664 138.371, 134.250 137.128 C 135.916 135.821, 136.445 135, 135.622 135 C 135.415 135, 134.627 135.787, 133.872 136.750 M 363 139.500 C 364.292 140.875, 365.574 142, 365.849 142 C 366.124 142, 365.292 140.875, 364 139.500 C 362.708 138.125, 361.426 137, 361.151 137 C 360.876 137, 361.708 138.125, 363 139.500 M 525.872 139.750 C 524.629 141.336, 524.664 141.371, 526.250 140.128 C 527.916 138.821, 528.445 138, 527.622 138 C 527.415 138, 526.627 138.787, 525.872 139.750 M 112.872 140.750 C 111.629 142.336, 111.664 142.371, 113.250 141.128 C 114.213 140.373, 115 139.585, 115 139.378 C 115 138.555, 114.179 139.084, 112.872 140.750 M 129.872 140.750 C 128.629 142.336, 128.664 142.371, 130.250 141.128 C 131.916 139.821, 132.445 139, 131.622 139 C 131.415 139, 130.627 139.787, 129.872 140.750 M 0.079 143.583 C 0.127 144.748, 0.364 144.985, 0.683 144.188 C 0.972 143.466, 0.936 142.603, 0.604 142.271 C 0.272 141.939, 0.036 142.529, 0.079 143.583 M 152.872 146.750 C 151.629 148.336, 151.664 148.371, 153.250 147.128 C 154.916 145.821, 155.445 145, 154.622 145 C 154.415 145, 153.627 145.787, 152.872 146.750 M 530.405 147.250 L 528.500 149.500 530.750 147.595 C 532.864 145.805, 533.455 145, 532.655 145 C 532.465 145, 531.453 146.012, 530.405 147.250 M 606.079 150.583 C 606.127 151.748, 606.364 151.985, 606.683 151.188 C 606.972 150.466, 606.936 149.603, 606.604 149.271 C 606.272 148.939, 606.036 149.529, 606.079 150.583 M 535.872 154.750 C 534.629 156.336, 534.664 156.371, 536.250 155.128 C 537.916 153.821, 538.445 153, 537.622 153 C 537.415 153, 536.627 153.787, 535.872 154.750 M 236.872 164.750 C 235.629 166.336, 235.664 166.371, 237.250 165.128 C 238.916 163.821, 239.445 163, 238.622 163 C 238.415 163, 237.627 163.787, 236.872 164.750 M 103.872 167.750 C 102.629 169.336, 102.664 169.371, 104.250 168.128 C 105.213 167.373, 106 166.585, 106 166.378 C 106 165.555, 105.179 166.084, 103.872 167.750 M 222.405 169.250 L 220.500 171.500 222.750 169.595 C 224.864 167.805, 225.455 167, 224.655 167 C 224.465 167, 223.453 168.012, 222.405 169.250 M 551.872 169.750 C 550.629 171.336, 550.664 171.371, 552.250 170.128 C 553.212 169.373, 554 168.585, 554 168.378 C 554 167.555, 553.179 168.084, 551.872 169.750 M 448.500 171 C 449.495 172.100, 450.535 173, 450.810 173 C 451.085 173, 450.495 172.100, 449.500 171 C 448.505 169.900, 447.465 169, 447.190 169 C 446.915 169, 447.505 169.900, 448.500 171 M 91.733 174.124 C 92.412 174.808, 93.219 175.115, 93.526 174.807 C 93.834 174.499, 93.279 173.940, 92.293 173.564 C 90.868 173.022, 90.753 173.136, 91.733 174.124 M 215.924 176.750 L 213.500 179.500 216.250 177.076 C 218.820 174.810, 219.459 174, 218.674 174 C 218.495 174, 217.258 175.238, 215.924 176.750 M 107.872 179.750 C 106.629 181.336, 106.664 181.371, 108.250 180.128 C 109.213 179.373, 110 178.585, 110 178.378 C 110 177.555, 109.179 178.084, 107.872 179.750 M 229.872 179.750 C 228.629 181.336, 228.664 181.371, 230.250 180.128 C 231.916 178.821, 232.445 178, 231.622 178 C 231.415 178, 230.627 178.787, 229.872 179.750 M 222.405 186.250 L 220.500 188.500 222.750 186.595 C 223.988 185.547, 225 184.535, 225 184.345 C 225 183.545, 224.195 184.136, 222.405 186.250 M 95.872 188.750 C 94.629 190.336, 94.664 190.371, 96.250 189.128 C 97.213 188.373, 98 187.585, 98 187.378 C 98 186.555, 97.179 187.084, 95.872 188.750 M 259.158 191 C 259.158 192.375, 259.385 192.938, 259.662 192.250 C 259.940 191.563, 259.940 190.438, 259.662 189.750 C 259.385 189.063, 259.158 189.625, 259.158 191 M 597 194 C 596.411 195.100, 596.155 196, 596.430 196 C 596.705 196, 597.411 195.100, 598 194 C 598.589 192.900, 598.845 192, 598.570 192 C 598.295 192, 597.589 192.900, 597 194 M 187 195 C 186.099 195.582, 185.975 195.975, 186.691 195.985 C 187.346 195.993, 188.160 195.550, 188.500 195 C 189.267 193.758, 188.921 193.758, 187 195 M 209.872 197.750 C 208.629 199.336, 208.664 199.371, 210.250 198.128 C 211.916 196.821, 212.445 196, 211.622 196 C 211.415 196, 210.627 196.787, 209.872 197.750 M 596.872 212.750 C 595.629 214.336, 595.664 214.371, 597.250 213.128 C 598.916 211.821, 599.445 211, 598.622 211 C 598.415 211, 597.627 211.787, 596.872 212.750 M 89.405 214.250 L 87.500 216.500 89.750 214.595 C 91.864 212.805, 92.455 212, 91.655 212 C 91.465 212, 90.453 213.012, 89.405 214.250 M 80.872 214.750 C 79.629 216.336, 79.664 216.371, 81.250 215.128 C 82.916 213.821, 83.445 213, 82.622 213 C 82.415 213, 81.627 213.787, 80.872 214.750 M 81.405 222.250 L 79.500 224.500 81.750 222.595 C 83.864 220.805, 84.455 220, 83.655 220 C 83.465 220, 82.453 221.012, 81.405 222.250 M 598.872 225.750 C 597.629 227.336, 597.664 227.371, 599.250 226.128 C 600.212 225.373, 601 224.585, 601 224.378 C 601 223.555, 600.179 224.084, 598.872 225.750 M 73.924 228.750 L 71.500 231.500 74.250 229.076 C 75.763 227.742, 77 226.505, 77 226.326 C 77 225.541, 76.190 226.180, 73.924 228.750 M 84.872 228.750 C 83.629 230.336, 83.664 230.371, 85.250 229.128 C 86.213 228.373, 87 227.585, 87 227.378 C 87 226.555, 86.179 227.084, 84.872 228.750 M 246.079 230.583 C 246.127 231.748, 246.364 231.985, 246.683 231.188 C 246.972 230.466, 246.936 229.603, 246.604 229.271 C 246.272 228.939, 246.036 229.529, 246.079 230.583 M 593.872 230.750 C 592.629 232.336, 592.664 232.371, 594.250 231.128 C 595.916 229.821, 596.445 229, 595.622 229 C 595.415 229, 594.627 229.787, 593.872 230.750 M 357 230.378 C 357 230.585, 357.788 231.373, 358.750 232.128 C 360.336 233.371, 360.371 233.336, 359.128 231.750 C 357.821 230.084, 357 229.555, 357 230.378 M 229.437 235.250 L 226.500 238.500 229.750 235.563 C 232.779 232.825, 233.460 232, 232.687 232 C 232.515 232, 231.052 233.463, 229.437 235.250 M 178.872 237.750 C 177.629 239.336, 177.664 239.371, 179.250 238.128 C 180.213 237.373, 181 236.585, 181 236.378 C 181 235.555, 180.179 236.084, 178.872 237.750 M 100.469 243.250 L 94.500 249.500 100.750 243.531 C 104.188 240.249, 107 237.436, 107 237.281 C 107 236.542, 106.013 237.444, 100.469 243.250 M 251.079 249.583 C 251.127 250.748, 251.364 250.985, 251.683 250.188 C 251.972 249.466, 251.936 248.603, 251.604 248.271 C 251.272 247.939, 251.036 248.529, 251.079 249.583 M 585.872 251.750 C 584.629 253.336, 584.664 253.371, 586.250 252.128 C 587.916 250.821, 588.445 250, 587.622 250 C 587.415 250, 586.627 250.787, 585.872 251.750 M 209.872 253.750 C 208.629 255.336, 208.664 255.371, 210.250 254.128 C 211.213 253.373, 212 252.585, 212 252.378 C 212 251.555, 211.179 252.084, 209.872 253.750 M 428.872 257.750 C 427.629 259.336, 427.664 259.371, 429.250 258.128 C 430.916 256.821, 431.445 256, 430.622 256 C 430.415 256, 429.627 256.788, 428.872 257.750 M 604.079 257.583 C 604.127 258.748, 604.364 258.985, 604.683 258.188 C 604.972 257.466, 604.936 256.603, 604.604 256.271 C 604.272 255.939, 604.036 256.529, 604.079 257.583 M 450.507 261.989 C 450.157 262.555, 450.558 262.723, 451.448 262.382 C 453.180 261.717, 453.497 261, 452.059 261 C 451.541 261, 450.843 261.445, 450.507 261.989 M 417.924 268.750 L 415.500 271.500 418.250 269.076 C 419.762 267.742, 421 266.505, 421 266.326 C 421 265.541, 420.190 266.180, 417.924 268.750 M 606.079 272.583 C 606.127 273.748, 606.364 273.985, 606.683 273.188 C 606.972 272.466, 606.936 271.603, 606.604 271.271 C 606.272 270.939, 606.036 271.529, 606.079 272.583 M 95 272.378 C 95 272.585, 95.787 273.373, 96.750 274.128 C 98.336 275.371, 98.371 275.336, 97.128 273.750 C 95.821 272.084, 95 271.555, 95 272.378 M 464.813 273.683 C 465.534 273.972, 466.397 273.936, 466.729 273.604 C 467.061 273.272, 466.471 273.036, 465.417 273.079 C 464.252 273.127, 464.015 273.364, 464.813 273.683 M 209.872 279.750 C 208.629 281.336, 208.664 281.371, 210.250 280.128 C 211.916 278.821, 212.445 278, 211.622 278 C 211.415 278, 210.627 278.788, 209.872 279.750 M 265 290 C 264.411 291.100, 264.155 292, 264.430 292 C 264.705 292, 265.411 291.100, 266 290 C 266.589 288.900, 266.845 288, 266.570 288 C 266.295 288, 265.589 288.900, 265 290 M 210.872 291.750 C 209.629 293.336, 209.664 293.371, 211.250 292.128 C 212.213 291.373, 213 290.585, 213 290.378 C 213 289.555, 212.179 290.084, 210.872 291.750 M 494 292.378 C 494 292.585, 494.788 293.373, 495.750 294.128 C 497.336 295.371, 497.371 295.336, 496.128 293.750 C 494.821 292.084, 494 291.555, 494 292.378 M 441.453 300.250 L 437.500 304.500 441.750 300.547 C 445.702 296.871, 446.460 296, 445.703 296 C 445.540 296, 443.627 297.913, 441.453 300.250 M 82 299.378 C 82 299.585, 82.787 300.373, 83.750 301.128 C 85.336 302.371, 85.371 302.336, 84.128 300.750 C 82.821 299.084, 82 298.555, 82 299.378 M 224.924 302.750 L 222.500 305.500 225.250 303.076 C 227.820 300.810, 228.459 300, 227.674 300 C 227.495 300, 226.258 301.238, 224.924 302.750 M 86 303.378 C 86 303.585, 86.787 304.373, 87.750 305.128 C 89.336 306.371, 89.371 306.336, 88.128 304.750 C 86.821 303.084, 86 302.555, 86 303.378 M 434.405 308.250 L 432.500 310.500 434.750 308.595 C 436.864 306.805, 437.455 306, 436.655 306 C 436.465 306, 435.453 307.012, 434.405 308.250 M 227.405 309.250 L 225.500 311.500 227.750 309.595 C 228.988 308.547, 230 307.535, 230 307.345 C 230 306.545, 229.195 307.136, 227.405 309.250 M 457.872 311.750 C 456.629 313.336, 456.664 313.371, 458.250 312.128 C 459.212 311.373, 460 310.585, 460 310.378 C 460 309.555, 459.179 310.084, 457.872 311.750 M 4.500 326 C 6.648 328.200, 8.631 330, 8.906 330 C 9.181 330, 7.648 328.200, 5.500 326 C 3.352 323.800, 1.369 322, 1.094 322 C 0.819 322, 2.352 323.800, 4.500 326 M 223.872 324.750 C 222.629 326.336, 222.664 326.371, 224.250 325.128 C 225.213 324.373, 226 323.585, 226 323.378 C 226 322.555, 225.179 323.084, 223.872 324.750 M 252.405 326.250 L 250.500 328.500 252.750 326.595 C 253.988 325.547, 255 324.535, 255 324.345 C 255 323.545, 254.195 324.136, 252.405 326.250 M -0 328.378 C -0 328.585, 0.788 329.373, 1.750 330.128 C 3.336 331.371, 3.371 331.336, 2.128 329.750 C 0.821 328.084, 0 327.555, -0 328.378 M 602.500 332 C 603.495 333.100, 604.535 334, 604.810 334 C 605.085 334, 604.495 333.100, 603.500 332 C 602.505 330.900, 601.465 330, 601.190 330 C 600.915 330, 601.505 330.900, 602.500 332 M 522.872 347.750 C 521.629 349.336, 521.664 349.371, 523.250 348.128 C 524.916 346.821, 525.445 346, 524.622 346 C 524.415 346, 523.627 346.788, 522.872 347.750 M 395.813 349.683 C 396.534 349.972, 397.397 349.936, 397.729 349.604 C 398.061 349.272, 397.471 349.036, 396.417 349.079 C 395.252 349.127, 395.015 349.364, 395.813 349.683" stroke="none" fill="#2A2D33" fill-rule="evenodd"/>
</svg>